PathFileType	4	(X/Y/Z)	4_coords_data.trc
DataRate	CameraRate	NumFrames	NumMarkers	Units	OrigDataRate	OrigDataStartFrame	OrigNumFrames
30.0	30.0	8	21	m	30.0	1	51
Frame#	Time	THUMB_TIP	THUMB_IP	THUMB_MCP	THUMB_CMC	INDEX_TIP	INDEX_DIP	INDEX_PIP	INDEX_MCP	MIDDLE_TIP	MIDDLE_DIP	MIDDLE_PIP	MIDDLE_MCP	RING_TIP	RING_DIP	RING_PIP	RING_MCP	PINKY_TIP	PINKY_DIP	PINKY_PIP	PINKY_MCP	WRIST
X1	Y1	Z1	X2	Y2	Z2	X3	Y3	Z3	X4	Y4	Z4	X5	Y5	Z5	X6	Y6	Z6	X7	Y7	Z7	X8	Y8	Z8	X9	Y9	Z9	X10	Y10	Z10	X11	Y11	Z11	X12	Y12	Z12	X13	Y13	Z13	X14	Y14	Z14	X15	Y15	Z15	X16	Y16	Z16	X17	Y17	Z17	X18	Y18	Z18	X19	Y19	Z19	X20	Y20	Z20	X21	Y21	Z21
0	0.0	-0.01853019905090332	-0.04832740020751953	1.0132999877929687	-0.033487598419189454	-0.047874401092529294	1.0418499755859374	-0.045947700500488284	-0.05626369857788086	1.0695	-0.07231719970703125	-0.031109100341796876	1.1	-0.018962200164794923	-0.03334460067749023	0.9827039794921875	-0.03968069839477539	-0.04174700164794922	0.9921079711914063	-0.0615994987487793	-0.050929298400878904	1.0066799926757812	-0.09157640075683594	-0.05890890121459961	1.0382099609375	-0.013915800094604492	-0.014086799621582031	0.9767529907226562	-0.03752339935302734	-0.020022199630737304	0.9883469848632812	-0.06535790252685547	-0.027227100372314454	1.0018400268554688	-0.09996990203857421	-0.034334800720214845	1.032469970703125	-0.007662189960479736	0.003246860027313232	1.001	-0.03338690185546875	0.005065020084381103	1.0009099731445312	-0.06117229843139648	0.002331470012664795	1.003489990234375	-0.09680059814453125	-0.009270190238952637	1.0361400146484374	-0.02529490089416504	0.013362299919128419	1.0200599975585938	-0.043971900939941404	0.019404899597167968	1.020219970703125	-0.06440049743652344	0.022342899322509765	1.021719970703125	-0.08910829925537109	0.013716400146484375	1.040969970703125	-0.09130809783935546	-0.01772220039367676	1.1205699462890626
1	0.03333333333333333	-0.01891440010070801	-0.04836600112915039	1.0135900268554687	-0.03345669937133789	-0.047183799743652347	1.0396400146484375	-0.04751409912109375	-0.05452920150756836	1.07075	-0.06586399841308593	-0.032365398406982424	1.093449951171875	-0.019076700210571288	-0.0337041015625	0.9837000122070313	-0.03909930038452149	-0.04179510116577148	0.993030029296875	-0.06113809967041016	-0.04953630065917969	1.0060499877929687	-0.0918031997680664	-0.05910919952392578	1.0368800048828124	-0.01488029956817627	-0.014505999565124512	0.9769130249023438	-0.03689920043945313	-0.019373300552368165	0.987156982421875	-0.06467299652099609	-0.0254375	1.0009500122070312	-0.09923000335693359	-0.034069999694824216	1.0329599609375	-0.008780739784240722	0.00393887996673584	1.0011599731445313	-0.03234270095825195	0.00420679998397827	1.0011799926757812	-0.062460098266601566	0.001971930027008056	1.005	-0.09570059967041016	-0.00916178035736084	1.0355999755859375	-0.026278600692749024	0.013110300064086915	1.022739990234375	-0.04399879837036133	0.019730300903320314	1.0202899780273438	-0.06541320037841797	0.02373360061645508	1.0207899780273437	-0.08951210021972657	0.014295000076293946	1.0424599609375	-0.09888569641113282	-0.016973600387573243	1.11925
2	0.06666666666666667	-0.019122400283813477	-0.04802669906616211	1.0135399780273437	-0.03376380157470703	-0.04703150177001953	1.0393199462890625	-0.047452800750732424	-0.05450019836425781	1.070199951171875	-0.06603880310058594	-0.03236869812011719	1.09322998046875	-0.01905620002746582	-0.03354909896850586	0.9837219848632812	-0.03912369918823242	-0.04165439987182617	0.9929929809570313	-0.06122309875488281	-0.049394500732421874	1.0059000244140626	-0.09188339996337891	-0.058941001892089846	1.036760009765625	-0.014839799880981445	-0.01436680030822754	0.9770269775390625	-0.03688759994506836	-0.01919350051879883	0.9872169799804688	-0.06477290344238282	-0.025227300643920897	1.0007999877929687	-0.09934829711914063	-0.03394229888916016	1.0322099609375	-0.00890744972229004	0.004033939838409424	1.0010599975585937	-0.03240069961547851	0.004321710109710693	1.0010399780273438	-0.06255759811401367	0.002180740118026733	1.00472998046875	-0.09594080352783203	-0.009019769668579102	1.0352900390625	-0.026318300247192384	0.013163200378417969	1.0220900268554687	-0.044145301818847654	0.01993079948425293	1.0199099731445314	-0.06554070281982421	0.0239197998046875	1.0205599975585937	-0.0896990966796875	0.014470600128173828	1.0422900390625	-0.09878579711914062	-0.016758100509643555	1.1186700439453126
3	0.1	-0.019279600143432617	-0.04772090148925781	1.0133300170898438	-0.03391109848022461	-0.0468744010925293	1.0393699951171875	-0.047505001068115234	-0.05435940170288086	1.06981005859375	-0.06612899780273437	-0.03214849853515625	1.092800048828125	-0.018852100372314454	-0.033426200866699216	0.9836320190429687	-0.03899319839477539	-0.04153739929199219	0.9929979858398438	-0.06110879898071289	-0.049273200988769535	1.005760009765625	-0.09189990234375	-0.0587848014831543	1.0363599853515626	-0.01470259952545166	-0.014220499992370605	0.977177978515625	-0.036799598693847656	-0.019005199432373047	0.9871190185546875	-0.06470800018310546	-0.024999399185180664	1.0005800170898438	-0.09935990142822265	-0.033695899963378906	1.032260009765625	-0.008941220283508302	0.0041567997932434085	1.000989990234375	-0.032458698272705075	0.004466889858245849	1.0008900146484374	-0.06260720062255859	0.002386369943618774	1.0045399780273438	-0.09588369750976562	-0.00876338005065918	1.0351600341796876	-0.026410100936889648	0.013423299789428711	1.0220999755859375	-0.044198001861572266	0.02011750030517578	1.0196699829101563	-0.06562380218505859	0.02408679962158203	1.02025	-0.08976490020751954	0.014667400360107422	1.04197998046875	-0.0989761962890625	-0.01667140007019043	1.1188499755859376
4	0.13333333333333333	-0.019331499099731444	-0.04754249954223633	1.0127899780273437	-0.033820301055908206	-0.04657839965820312	1.038699951171875	-0.04752069854736328	-0.054285701751708985	1.06943994140625	-0.06598930358886719	-0.032097900390625	1.0926099853515625	-0.018546100616455077	-0.033138500213623044	0.9837139892578125	-0.0386958999633789	-0.041262699127197267	0.992927978515625	-0.06085540008544922	-0.0490261001586914	1.0055599975585938	-0.09195760345458984	-0.05857870101928711	1.03602001953125	-0.01445259952545166	-0.013933899879455567	0.97735302734375	-0.036608898162841796	-0.018694400787353516	0.987051025390625	-0.06460440063476562	-0.024712099075317382	1.0003400268554687	-0.09933910369873047	-0.03348460006713867	1.03202001953125	-0.008915929794311524	0.004413259983062744	1.0009199829101563	-0.03238100051879883	0.00477092981338501	1.00072998046875	-0.06255910110473632	0.00264584994316101	1.0043400268554687	-0.0958019027709961	-0.008535269737243653	1.034949951171875	-0.02636350059509277	0.01361769962310791	1.0216900024414062	-0.04425669860839844	0.020332300186157226	1.019489990234375	-0.06560320281982422	0.02432950019836426	1.020030029296875	-0.0898115005493164	0.014871500015258788	1.0418399658203126	-0.09890290069580078	-0.016687400817871095	1.118239990234375
5	0.16666666666666666	-0.019360200881958008	-0.04720859909057617	1.0129400024414061	-0.033741901397705075	-0.0463384017944336	1.0386700439453125	-0.04739879989624023	-0.054186298370361326	1.069239990234375	-0.06585990142822265	-0.031878599166870115	1.0922900390625	-0.018253599166870117	-0.03270479965209961	0.9841090087890625	-0.03838410186767578	-0.04095080184936523	0.9929949951171875	-0.06064459991455078	-0.04874269866943359	1.0054400024414063	-0.09195079803466796	-0.05842279815673828	1.0358499755859376	-0.013996700286865234	-0.013689599990844726	0.9776400146484375	-0.036247398376464846	-0.018444799423217775	0.9872020263671875	-0.06438330078125	-0.024487300872802733	1.0003499755859375	-0.09925800323486328	-0.03333089828491211	1.0318499755859376	-0.008739319801330567	0.004609189987182617	1.001010009765625	-0.03222760009765625	0.0049732599258422855	1.00072998046875	-0.06240370178222656	0.002867379903793335	1.004260009765625	-0.0958802032470703	-0.008413240432739258	1.03472998046875	-0.02630299949645996	0.013815699577331543	1.0216500244140625	-0.04419889831542969	0.02052989959716797	1.0193699951171875	-0.06550569915771484	0.024531999588012696	1.0199000244140626	-0.08979419708251953	0.01501930046081543	1.041699951171875	-0.0988770980834961	-0.016537099838256835	1.1182900390625
6	0.2	-0.0191289005279541	-0.047184600830078124	1.012469970703125	-0.033620098114013675	-0.04635390090942383	1.03831005859375	-0.047416400909423825	-0.05412850189208984	1.0693599853515625	-0.06608830261230468	-0.03209239959716797	1.0926099853515625	-0.017773099899291992	-0.03234329986572266	0.9844010009765625	-0.038012298583984375	-0.04061980056762695	0.9931719970703125	-0.060356098175048827	-0.04848780059814453	1.0054500122070313	-0.09193209838867188	-0.05835250091552734	1.03581005859375	-0.013418100357055663	-0.013607600212097167	0.9784320068359375	-0.03574480056762695	-0.018350000381469726	0.9875260009765625	-0.06407150268554687	-0.02435810089111328	1.0003900146484375	-0.0991573028564453	-0.03325669860839844	1.031800048828125	-0.008496190071105957	0.004589829921722412	1.001239990234375	-0.03201100158691406	0.005011129856109619	1.0008400268554687	-0.06217639923095703	0.002916569948196411	1.004219970703125	-0.09570449829101563	-0.008320409774780274	1.034550048828125	-0.02616749954223633	0.013919599533081055	1.0216500244140625	-0.04405759811401367	0.020624399185180664	1.019219970703125	-0.06533619689941406	0.02461280059814453	1.0197999877929687	-0.08954530334472656	0.01509589958190918	1.0416300048828124	-0.09885639953613282	-0.016549900054931642	1.1184000244140626
7	0.23333333333333334	-0.019225900650024413	-0.04701670074462891	1.0126099853515624	-0.0335536994934082	-0.04609320068359375	1.03822998046875	-0.047094699859619144	-0.05416139984130859	1.0689200439453126	-0.06563680267333985	-0.031843399047851564	1.091949951171875	-0.017404499053955077	-0.031925399780273436	0.984885986328125	-0.03761949920654297	-0.04022370147705078	0.9933759765625	-0.06001490020751953	-0.04823500061035156	1.00547998046875	-0.09163600158691407	-0.05830070114135742	1.035510009765625	-0.012798800468444824	-0.013468799591064453	0.9791329956054687	-0.035180599212646484	-0.01820490074157715	0.9880330200195313	-0.06360400009155273	-0.024218999862670898	1.00047998046875	-0.09901619720458985	-0.03317369842529297	1.0316099853515626	-0.008277170181274414	0.004654940128326416	1.0012899780273437	-0.03178310012817383	0.005099699974060058	1.0009600219726562	-0.0619365005493164	0.0030259699821472167	1.0041500244140624	-0.09551399993896484	-0.008217960357666016	1.034550048828125	-0.02596100044250488	0.01401609992980957	1.0216799926757814	-0.04381050109863281	0.02076449966430664	1.0190700073242187	-0.06522650146484375	0.024721200942993165	1.0195700073242187	-0.08951570129394532	0.01521399974822998	1.04168994140625	-0.09854029846191406	-0.016305299758911134	1.1181400146484375
